<svg width="512" height="512" viewBox="0 0 512 512" fill="none" xmlns="http://www.w3.org/2000/svg">
<rect x="4" y="4" width="504" height="504" rx="96" fill="#1A375B"/>
<rect x="4" y="4" width="504" height="504" rx="96" stroke="#2C4F5D" stroke-width="8"/>
<path d="M110.167 168.5C118.917 175.792 127.667 183.083 146.625 183.083C183.083 183.083 183.083 153.917 219.542 153.917C257.458 153.917 254.542 183.083 292.458 183.083C328.917 183.083 328.917 153.917 365.375 153.917C384.333 153.917 393.083 161.208 401.833 168.5" stroke="#60A5FA" stroke-width="30" stroke-linecap="round" stroke-linejoin="round"/>
<path d="M110.167 256C118.917 263.292 127.667 270.583 146.625 270.583C183.083 270.583 183.083 241.417 219.542 241.417C257.458 241.417 254.542 270.583 292.458 270.583C328.917 270.583 328.917 241.417 365.375 241.417C384.333 241.417 393.083 248.708 401.833 256" stroke="#60A5FA" stroke-width="30" stroke-linecap="round" stroke-linejoin="round"/>
<path d="M110.167 343.5C118.917 350.792 127.667 358.083 146.625 358.083C183.083 358.083 183.083 328.917 219.542 328.917C257.458 328.917 254.542 358.083 292.458 358.083C328.917 358.083 328.917 328.917 365.375 328.917C384.333 328.917 393.083 336.208 401.833 343.5" stroke="#60A5FA" stroke-width="30" stroke-linecap="round" stroke-linejoin="round"/>
</svg>
